<?xml version="1.0" encoding="UTF-8"?>
<svg xmlns="http://www.w3.org/2000/svg" viewBox="0 0 125.84 56.24">
  <defs>
    <style>
      .cls-1 {
        fill: #397999;
      }

      .cls-2 {
        fill: #5cd4e0;
      }
    </style>
  </defs>
  <g id="Calque_1-2" data-name="Calque 1">
    <path class="cls-1" d="M85.37,0C78.27,0,72.93,1.55,69.37,4.65c-3.56,3.1-5.35,7.51-5.35,13.23,0,6.28,1.42,11.71,5.13,15.14,3.71,3.42,7.53,4.56,11.85,4.56h4.27v18.66h9.36v-10.64h10.2V0h-19.47ZM89.64,25.2h-2.77c-2.28,0-4.1-.64-5.44-1.92s-2.02-3.05-2.02-5.31c0-3.8,2.1-5.69,6.31-5.69h3.92v12.93Z"/>
    <rect class="cls-2" x="97.05" y="47.99" width="7.79" height="7.79"/>
    <path class="cls-2" d="M77.9,26.93c0,9.39-2.58,16.62-7.75,21.7s-12.43,7.62-21.79,7.62h-18.2V0h19.47C58.65,0,65.62,2.31,70.53,6.92s7.37,11.28,7.37,20ZM60.49,27.57c0-4.19-1.34-7.13-3.06-9.31-.71-.9-2.9-3.03-6.5-3.03h-2.91v25.59h3.39c3.9,0,5.66-2.22,6.21-2.87,1.93-2.3,2.87-5.9,2.87-10.38Z"/>
    <g fill="#e7e7e7">
      <path d="M109.53,0h16.31s0,1.9,0,1.9h-14.59s0,7.19,0,7.19h-1.72s0-9.09,0-9.09Z"/>
      <path d="M109.53,11.86h16.31s0,1.9,0,1.9h-16.31s0-1.9,0-1.9Z"/>
      <path d="M125.84,18.23v4.61c0,2.16-.32,3.73-.97,4.7s-1.67,1.45-3.07,1.45c-.97,0-1.76-.27-2.39-.81s-1.04-1.33-1.22-2.36h-.11c-.42,2.48-1.73,3.71-3.9,3.71-1.46,0-2.6-.49-3.41-1.48s-1.23-2.36-1.23-4.13v-5.69s16.31,0,16.31,0ZM118.86,20.12v3.12c0,1.34.21,2.3.63,2.89s1.13.88,2.13.88c.91,0,1.57-.33,1.98-.98s.61-1.7.61-3.12v-2.79h-5.34ZM117.25,20.12h-6.1v3.4c0,1.32.25,2.31.76,2.97s1.31,1,2.39,1c1.01,0,1.76-.34,2.23-1.02s.71-1.72.71-3.11v-3.25Z"/>
      <path d="M116.32,34.93h-6.78s0-1.9,0-1.9h16.31s0,4.47,0,4.47c0,2-.38,3.48-1.15,4.43s-1.92,1.43-3.46,1.43c-2.16,0-3.61-1.09-4.37-3.28l-7.33,4.43v-2.24s6.78-3.95,6.78-3.95v-3.4ZM117.94,34.93v2.6c0,1.34.27,2.32.8,2.94s1.33.94,2.39.94,1.86-.32,2.33-.95.71-1.66.71-3.06v-2.47h-6.24Z"/>
      <path d="M109.53,56.24v-9.09s16.31,0,16.31,0v9.09s-1.68,0-1.68,0v-7.19h-5.25v6.76s-1.67,0-1.67,0v-6.76h-6v7.19s-1.7,0-1.7,0Z"/>
    </g>
    <path class="cls-1" d="M19.48,45.61l-10.2,10.64H0S0,0,0,0h19.47C26.57,0,31.9,1.55,35.47,4.65c3.56,3.1,5.35,7.51,5.35,13.23,0,6.28-1.42,11.71-5.13,15.14s-7.53,4.56-11.85,4.56h-4.27l-.08,8.02ZM15.2,25.2h2.77c2.28,0,4.1-.64,5.44-1.92s2.02-3.05,2.02-5.31c0-3.8-2.1-5.69-6.31-5.69h-3.92v12.93Z"/>
    <polygon class="cls-2" points="19.48 45.61 9.28 56.24 9.28 45.61 19.48 45.61"/>
  </g>
</svg>